<?xml version="1.0" encoding="UTF-8"?>
<svg id="Layer_1" data-name="Layer 1" xmlns="http://www.w3.org/2000/svg" version="1.1" viewBox="0 0 200 70">
  <defs>
    <style>
      .cls-1 {
        fill: #2663af;
      }

      .cls-1, .cls-2, .cls-3 {
        stroke-width: 0px;
      }

      .cls-2 {
        fill: #7750a1;
      }

      .cls-3 {
        fill: #fff;
      }
    </style>
  </defs>
  <path class="cls-3" d="M-.37-.3v70h200V-.3H-.37Z"/>
  <path class="cls-3" d="M-.37-.3v70h200V-.3H-.37Z"/>
  <path class="cls-1" d="M54.72,44.89c-1.36,0-2.42-.43-3.17-1.3-.75-.87-1.28-2.04-1.57-3.52-.29-1.47-.44-3.12-.44-4.93v-10.37c0-1.98.15-3.71.44-5.18.29-1.47.82-2.62,1.57-3.43.75-.81,1.81-1.21,3.17-1.21,1.2,0,2.16.34,2.86,1.01.71.68,1.21,1.64,1.52,2.9.31,1.26.46,2.77.46,4.53v2.32h-2.54v-2.07c0-1.09-.04-2.05-.11-2.88-.07-.83-.27-1.48-.58-1.94-.32-.46-.85-.69-1.59-.69s-1.31.25-1.66.74c-.35.5-.57,1.2-.68,2.1-.1.91-.15,1.96-.15,3.17v11.64c0,1.47.08,2.64.24,3.5.16.86.42,1.47.78,1.83s.86.54,1.47.54c.73,0,1.25-.25,1.57-.74.32-.5.51-1.18.59-2.05.08-.87.12-1.88.12-3.04v-2.18h2.54v2.18c0,1.79-.14,3.37-.43,4.73-.29,1.37-.78,2.43-1.47,3.19-.7.76-1.68,1.14-2.95,1.14ZM65.69,44.85c-1.01,0-1.81-.31-2.4-.94-.59-.63-1-1.52-1.25-2.68-.25-1.16-.37-2.53-.37-4.1v-6.09c0-1.57.12-2.94.37-4.1.25-1.16.66-2.05,1.25-2.68.59-.63,1.39-.94,2.4-.94s1.81.31,2.39.94c.58.63.99,1.52,1.24,2.68.25,1.16.37,2.53.37,4.1v6.09c0,1.57-.12,2.94-.37,4.1-.25,1.16-.66,2.05-1.24,2.68-.58.63-1.37.94-2.39.94ZM65.69,41.99c.49,0,.84-.22,1.03-.65.2-.44.32-1.01.36-1.72.04-.71.06-1.46.06-2.23v-6.56c0-.8-.02-1.55-.06-2.25-.04-.7-.16-1.27-.36-1.72-.2-.45-.54-.67-1.03-.67s-.84.22-1.05.67c-.21.45-.33,1.02-.37,1.72-.04.7-.06,1.45-.06,2.25v6.56c0,.77.02,1.52.06,2.23.04.71.16,1.29.37,1.72.21.43.55.65,1.05.65ZM72.09,44.56v-20.95h2.54v2.97c.51-1.28,1.01-2.14,1.52-2.57.51-.43,1.01-.65,1.52-.65h.18c.06,0,.13.01.23.04v4.28c-.19-.12-.41-.22-.65-.31-.25-.08-.49-.13-.75-.13-.4,0-.76.14-1.08.42-.33.28-.65.82-.96,1.61v15.3h-2.54ZM79.81,44.56v-20.95h2.54v20.95h-2.54ZM79.81,20.49v-4.06h2.54v4.06h-2.54ZM85.09,44.56v-20.95h2.54v2.07c.46-.65.97-1.21,1.52-1.67.55-.46,1.16-.69,1.83-.69.55,0,.98.22,1.27.65.29.43.5.98.62,1.63.12.65.18,1.32.18,1.99v16.97h-2.54v-15.84c0-.75-.07-1.33-.21-1.74-.14-.41-.44-.62-.88-.62-.29,0-.58.13-.89.38-.31.25-.61.56-.89.92v16.89h-2.54ZM95.52,44.56v-20.95h2.54v2.07c.46-.65.97-1.21,1.52-1.67.55-.46,1.16-.69,1.83-.69.55,0,.98.22,1.27.65.29.43.5.98.62,1.63.12.65.18,1.32.18,1.99v16.97h-2.54v-15.84c0-.75-.07-1.33-.21-1.74-.14-.41-.44-.62-.88-.62-.29,0-.58.13-.89.38-.31.25-.61.56-.89.92v16.89h-2.54ZM109.75,44.85c-1.08,0-1.91-.32-2.5-.96-.59-.64-.99-1.58-1.22-2.83-.23-1.24-.34-2.77-.34-4.59v-4.78c0-1.86.12-3.41.36-4.64.24-1.23.65-2.16,1.25-2.79.59-.63,1.41-.94,2.46-.94,1.16,0,2.01.36,2.55,1.09s.91,1.77,1.08,3.14c.17,1.37.26,3,.26,4.91v1.7h-5.42v4.21c0,.85.05,1.53.15,2.07.1.53.27.92.5,1.18.23.25.53.38.89.38s.67-.14.87-.42c.2-.28.33-.68.4-1.2.07-.52.11-1.13.11-1.83v-1.27h2.47v.8c0,2.1-.29,3.76-.88,4.97-.59,1.21-1.58,1.81-2.99,1.81ZM108.23,32.05h2.92v-1.89c0-.87-.03-1.6-.1-2.19-.06-.59-.19-1.04-.39-1.34-.2-.3-.51-.45-.94-.45s-.72.15-.94.43c-.21.29-.36.78-.44,1.47-.08.69-.12,1.64-.12,2.85v1.12ZM121.61,44.56V15.2h2.69v12.69h4.94v-12.69h2.69v29.36h-2.69v-13.74h-4.94v13.74h-2.69ZM136.8,44.85c-.54,0-1.01-.24-1.43-.71-.41-.47-.74-1.08-.97-1.81-.24-.74-.36-1.52-.36-2.34,0-1.3.14-2.41.43-3.3.29-.89.68-1.65,1.18-2.27.5-.62,1.08-1.15,1.73-1.61.66-.46,1.35-.91,2.08-1.34v-1.49c0-.85-.03-1.55-.1-2.1-.06-.56-.19-.97-.39-1.25-.2-.28-.49-.42-.89-.42-.35,0-.63.12-.84.36-.21.24-.37.59-.46,1.03-.1.45-.14.97-.14,1.58v1.05l-2.52-.14c.03-2.32.38-4.03,1.05-5.13.67-1.1,1.7-1.65,3.09-1.65s2.33.57,2.9,1.7c.57,1.14.86,2.78.86,4.93v9.57c0,.65.01,1.28.04,1.88.02.6.06,1.17.1,1.69.04.52.07,1.01.11,1.47h-2.33c-.05-.39-.11-.88-.18-1.47-.07-.59-.12-1.13-.15-1.61-.16.82-.46,1.59-.91,2.3-.45.71-1.07,1.07-1.87,1.07ZM137.8,41.52c.25,0,.49-.11.71-.33.22-.22.42-.47.59-.74.17-.28.29-.5.36-.67v-5.95c-.4.34-.77.68-1.12,1.01-.35.34-.65.69-.92,1.07-.26.37-.47.8-.62,1.27-.15.47-.23,1.01-.23,1.61,0,.85.1,1.51.31,1.99.21.48.51.73.9.73ZM148.09,51.12c-.84,0-1.6-.14-2.27-.42-.67-.28-1.2-.71-1.59-1.29-.39-.58-.58-1.34-.58-2.28,0-.72.11-1.36.33-1.9.22-.54.51-1.01.86-1.4.35-.39.71-.69,1.09-.91l1.19.25c-.21.29-.4.59-.59.89-.19.3-.35.62-.48.94-.13.33-.19.68-.19,1.07,0,.63.18,1.1.53,1.41.36.31.99.47,1.91.47s1.57-.16,2.01-.49c.44-.33.65-.84.65-1.54,0-.44-.05-.79-.17-1.07-.11-.28-.3-.5-.57-.67-.27-.17-.66-.29-1.16-.36l-2.99-.58c-.62-.12-1.08-.42-1.38-.91-.3-.48-.45-1.02-.45-1.6,0-.87.16-1.61.49-2.21.33-.6.76-1.28,1.32-2.03l.86,1.02c-.09.19-.21.47-.36.82-.14.35-.21.69-.21,1.03,0,.27.09.48.27.65.18.17.47.28.87.33l2.31.33c1.08.14,1.88.64,2.4,1.49.52.85.78,2.05.78,3.63,0,1.16-.18,2.14-.53,2.94-.36.8-.89,1.4-1.6,1.8-.71.4-1.62.6-2.73.6ZM148.18,38.11c-.93,0-1.7-.31-2.28-.94-.59-.63-1.02-1.5-1.3-2.61-.28-1.11-.42-2.38-.42-3.81,0-1.62.15-2.98.45-4.08.3-1.1.75-1.93,1.34-2.5.59-.57,1.33-.85,2.2-.85s1.64.34,2.21,1.03c.57.69.99,1.6,1.26,2.74.27,1.14.4,2.39.4,3.77s-.12,2.69-.37,3.79c-.25,1.1-.65,1.95-1.21,2.56-.56.6-1.33.91-2.29.91ZM148.18,35.32c.35,0,.63-.1.83-.31.21-.21.36-.5.46-.89.1-.39.17-.86.21-1.43.04-.57.06-1.21.06-1.94s-.02-1.38-.05-1.96c-.03-.58-.1-1.07-.21-1.47-.11-.4-.27-.71-.48-.92-.21-.22-.48-.33-.81-.33s-.63.1-.84.31-.38.51-.5.91c-.12.4-.2.89-.24,1.47-.04.58-.06,1.24-.06,1.99,0,.65.02,1.26.06,1.81.04.56.11,1.04.23,1.45.11.41.27.73.49.96.21.23.49.34.84.34ZM151.58,27.12l-.59-1.45c.13-.34.41-.76.86-1.27.44-.51.92-.93,1.43-1.27l.67,2.54c-.22.07-.52.21-.89.4-.37.19-.71.39-1.01.6-.3.2-.45.36-.45.45ZM158.3,51.12c-.84,0-1.6-.14-2.27-.42-.67-.28-1.2-.71-1.59-1.29-.39-.58-.58-1.34-.58-2.28,0-.72.11-1.36.33-1.9.22-.54.51-1.01.86-1.4.35-.39.71-.69,1.09-.91l1.19.25c-.21.29-.4.59-.59.89-.19.3-.35.62-.48.94-.13.33-.19.68-.19,1.07,0,.63.18,1.1.53,1.41.36.31.99.47,1.91.47s1.57-.16,2.01-.49c.44-.33.65-.84.65-1.54,0-.44-.05-.79-.17-1.07-.11-.28-.3-.5-.57-.67-.27-.17-.66-.29-1.16-.36l-2.99-.58c-.62-.12-1.08-.42-1.38-.91-.3-.48-.45-1.02-.45-1.6,0-.87.16-1.61.49-2.21.33-.6.76-1.28,1.32-2.03l.86,1.02c-.09.19-.21.47-.36.82-.14.35-.21.69-.21,1.03,0,.27.09.48.27.65.18.17.47.28.87.33l2.31.33c1.08.14,1.88.64,2.4,1.49.52.85.78,2.05.78,3.63,0,1.16-.18,2.14-.53,2.94-.36.8-.89,1.4-1.6,1.8-.71.4-1.62.6-2.73.6ZM158.4,38.11c-.93,0-1.7-.31-2.28-.94-.59-.63-1.02-1.5-1.29-2.61-.28-1.11-.42-2.38-.42-3.81,0-1.62.15-2.98.45-4.08.3-1.1.75-1.93,1.34-2.5.59-.57,1.33-.85,2.2-.85s1.64.34,2.21,1.03c.57.69.99,1.6,1.26,2.74.27,1.14.4,2.39.4,3.77s-.12,2.69-.37,3.79c-.25,1.1-.65,1.95-1.21,2.56-.56.6-1.33.91-2.29.91ZM158.4,35.32c.35,0,.63-.1.83-.31s.36-.5.46-.89c.1-.39.17-.86.21-1.43.04-.57.06-1.21.06-1.94s-.02-1.38-.05-1.96c-.03-.58-.1-1.07-.21-1.47s-.27-.71-.48-.92c-.21-.22-.48-.33-.81-.33s-.63.1-.84.31-.38.51-.5.91-.2.89-.24,1.47c-.04.58-.06,1.24-.06,1.99,0,.65.02,1.26.06,1.81.04.56.11,1.04.23,1.45.11.41.27.73.49.96.21.23.49.34.84.34ZM161.8,27.12l-.59-1.45c.13-.34.41-.76.86-1.27.44-.51.92-.93,1.43-1.27l.67,2.54c-.22.07-.52.21-.89.4s-.71.39-1.01.6c-.3.2-.45.36-.45.45ZM168.83,44.85c-1.08,0-1.91-.32-2.5-.96-.59-.64-.99-1.58-1.22-2.83-.23-1.24-.34-2.77-.34-4.59v-4.78c0-1.86.12-3.41.36-4.64.24-1.23.65-2.16,1.25-2.79.59-.63,1.41-.94,2.46-.94,1.16,0,2.01.36,2.55,1.09s.91,1.77,1.08,3.14c.17,1.37.26,3,.26,4.91v1.7h-5.42v4.21c0,.85.05,1.53.15,2.07.1.53.27.92.5,1.18.23.25.53.38.89.38s.67-.14.87-.42c.2-.28.33-.68.4-1.2.07-.52.11-1.13.11-1.83v-1.27h2.47v.8c0,2.1-.29,3.76-.88,4.97-.59,1.21-1.58,1.81-2.99,1.81ZM167.31,32.05h2.92v-1.89c0-.87-.03-1.6-.09-2.19-.06-.59-.19-1.04-.39-1.34-.2-.3-.51-.45-.94-.45s-.72.15-.94.43c-.21.29-.36.78-.44,1.47-.08.69-.12,1.64-.12,2.85v1.12ZM175.11,44.56v-20.95h2.54v2.97c.51-1.28,1.01-2.14,1.52-2.57.51-.43,1.01-.65,1.52-.65h.18c.06,0,.13.01.23.04v4.28c-.19-.12-.41-.22-.65-.31-.25-.08-.5-.13-.75-.13-.4,0-.76.14-1.08.42-.33.28-.65.82-.96,1.61v15.3h-2.54ZM186.32,44.85c-.71,0-1.29-.21-1.72-.62-.44-.41-.75-.99-.95-1.74-.2-.75-.3-1.63-.3-2.65v-13.67h-1.45v-2.57h1.45v-6.13h2.54v6.13h2.21v2.57h-2.21v13.41c0,.82.09,1.41.26,1.76.17.35.51.53,1,.53.13,0,.27-.01.44-.04.17-.02.33-.05.49-.07v2.86c-.32.07-.61.13-.88.16-.27.04-.56.05-.88.05ZM189.77,49.82v-2.97c.62,0,1.11-.04,1.47-.13s.63-.24.78-.47c.16-.23.24-.55.24-.96,0-.22-.06-.7-.17-1.45s-.23-1.55-.36-2.39l-2.76-17.84h2.57l1.85,15.66,1.78-15.66h2.57l-3.28,22.11c-.14,1.01-.4,1.82-.78,2.41-.38.59-.87,1.02-1.46,1.29-.59.27-1.31.4-2.15.4h-.31Z"/>
  <path class="cls-2" d="M20.27,44.76c-.11,0-.24,0-.36,0h-3.09c-.03-.07-.04-.16-.05-.24l-.44-1.54c-1.37-3.86-4.89-8.82-9.28-9.47-.49-.07-.98-.06-1.48-.06v-3.65c.36,0,.73,0,1.1.02,6.69.48,11.38,7.19,13.17,13.09.19.62.3,1.24.44,1.87Z"/>
  <path class="cls-2" d="M33.77,29.3l-.83.7c-.73.65-1.38,1.4-2.01,2.17-3.05,3.77-4.81,8.27-5.61,13.22l-.31,2.15h-2.54c-.09-2.29-.8-5.33-1.51-7.41l-.77-1.95c-2.25-5.33-6.36-10.34-11.71-11.53l-.73-.14c-.33-.07-.68-.06-1.02-.06h-1.17s0-4.4,0-4.4l1.76.02c3.97.29,7.76,2.5,10.6,5.53l2.25,2.76c-.49-2.35-1.09-4.66-1.81-6.93l-.75-2.25c-.94-2.59-2.13-5.18-3.7-7.38l-.47-.62c-.09-.11-.31-.43-.4-.5l1.85-.02,2.99.02c.07.09.09.15.14.25l.72,1.36c1.69,3.24,2.91,6.76,3.81,10.37l1.15,5.41c.1.56.17,1.18.36,1.71.1-.44.13-.94.2-1.39l.5-2.57c.92-4.48,2.15-8.91,4.11-12.98l.88-1.81c.15-.3.05-.38.38-.38h3.58c.56,0,1.13.03,1.69-.01-.15.08-.27.23-.39.36l-.52.6c-1.36,1.62-2.4,3.6-3.27,5.59l-.78,1.89-.85,2.49-.82,2.89-.94,3.76,1.81-2.3c2.83-3.24,6.17-5.33,10.28-5.82.69-.08,1.4-.05,2.1-.06.02.15,0,.32,0,.48v3.93c-.53,0-1.09-.04-1.64,0-2.38.2-4.68,1.29-6.61,2.83Z"/>
  <path class="cls-2" d="M27.47,44.74h-.59c.05-.1.06-.22.09-.33l.69-2.44c1.46-4.38,4.63-8.74,8.93-10.92,1.54-.78,3.13-1.21,4.88-1.24h.56s0,3.59,0,3.59c-.07.02-.15.01-.22.02l-.93.06c-5.11.55-9.63,6.81-10.41,11.27h-2.99Z"/>
</svg>